# xmcd CD database file
#
# Track frame offsets:
#	150
#	20715
#	39030
#	52907
#	78082
#	98057
#	113900
#	135397
#	149757
#	171307
#	193815
#	216700
#	238485
#	259380
#	278295
#
# Disc length: 4109 seconds
#
# Revision: 4
# Processed by: cddbd v1.5.2PL0 Copyright (c) Steve Scherf et al.
# Submitted via: CDex 1.90
#
DISCID=dc100b0f
DTITLE=Neville Brothers - Greatest Hits
DYEAR=1998
DGENRE=Soul, R&B
TTITLE0=Brother Blood
TTITLE1=Yellow Moon
TTITLE2=Louisiana
TTITLE3=Brother John - Iko Iko
TTITLE4=Everybody Plays The Fool
TTITLE5=Sister Rosa
TTITLE6=Fly Like An Eagle
TTITLE7=Close Your Eyes
TTITLE8=Brother Jake
TTITLE9=Use Me
TTITLE10=Bird On A Wire
TTITLE11=Family Groove
TTITLE12=Don't Take Away My Heaven
TTITLE13=My Blood
TTITLE14=With God On Our Side
EXTD=YEAR: 1998
EXTT0=
EXTT1=
EXTT2=
EXTT3=
EXTT4=
EXTT5=
EXTT6=
EXTT7=
EXTT8=
EXTT9=
EXTT10=
EXTT11=
EXTT12=
EXTT13=
EXTT14=
PLAYORDER=
